<svg id="eb1b09ad-1fe0-40ca-8096-34696e14e30a" xmlns="http://www.w3.org/2000/svg" viewBox="0 0 700.34 503.86"><defs><style>.cls-1{fill:#3f3d56;}.cls-2{fill:#f2f2f2;}.cls-3,.cls-7{fill:tomato;}.cls-4{fill:#ff6584;}.cls-5{fill:#e6e6e6;}.cls-6{fill:#fff;}.cls-10,.cls-7{isolation:isolate;}.cls-7{opacity:0.2;}.cls-8{fill:#2f2e41;}.cls-9{fill:#ffb9b9;}.cls-10{opacity:0.1;}</style></defs><path class="cls-1" d="M700.34,727.28q-54.14-7.92-104.11-13.66l13.17-21.33c-4.44-1.31-24,10.85-24,10.85l17.3-62C580.4,643.3,569,706.62,569,706.62l-25-21.54,12.08,24.15c-102-10.53-190.06-14.67-264.15-15.14l11.28-18.25c-4.45-1.32-24,10.84-24,10.84l17.29-62c-22.34,2.15-33.71,65.48-33.71,65.48L238,668.62l12.79,25.58c-62.11.75-112.76,4.07-151.85,7.93C110.3,673.67,149,646.74,149,646.74c-29.59,7.23-45.11,19.5-53.22,31-.62-35.21,3.55-100.46,34.54-172.57,0,0-61.17,111.13-53.38,186l.93,13.28C26.07,710.35,0,716.7,0,716.7Z" transform="translate(0 -223.42)"/><path class="cls-1" d="M372.4,243.61V692.68a20.18,20.18,0,0,1-20.18,20.16H169.91a20.15,20.15,0,0,1-20.19-20.11V243.61a20.2,20.2,0,0,1,20.18-20.19h27.29v3.5a16.61,16.61,0,0,0,16.61,16.62h92.73a16.62,16.62,0,0,0,16.61-16.62v-3.5h29.07a20.19,20.19,0,0,1,20.19,20.17Z" transform="translate(0 -223.42)"/><circle class="cls-2" cx="200.51" cy="74.82" r="4.85"/><path class="cls-3" d="M318,238.93a16.41,16.41,0,0,1-1.63,1.37,86.78,86.78,0,0,0,56,41.7v-2.16A84.75,84.75,0,0,1,318,238.93Z" transform="translate(0 -223.42)"/><path class="cls-3" d="M276.58,243.54H274.3a125.84,125.84,0,0,0,98.1,78.32v-2.14A123.67,123.67,0,0,1,276.58,243.54Z" transform="translate(0 -223.42)"/><path class="cls-3" d="M234.72,243.54h-2.19A165.93,165.93,0,0,0,372.4,362.09V360A163.84,163.84,0,0,1,234.72,243.54Z" transform="translate(0 -223.42)"/><polygon class="cls-2" points="184.58 110.72 183.32 110.72 183.32 109.46 183.07 109.46 183.07 110.72 181.81 110.72 181.81 110.97 183.07 110.97 183.07 112.23 183.32 112.23 183.32 110.97 184.58 110.97 184.58 110.72"/><polygon class="cls-2" points="269.79 47.68 268.53 47.68 268.53 46.42 268.29 46.42 268.29 47.68 267.02 47.68 267.02 47.93 268.29 47.93 268.29 49.19 268.53 49.19 268.53 47.93 269.79 47.93 269.79 47.68"/><polygon class="cls-2" points="197.05 160.6 195.79 160.6 195.79 159.34 195.54 159.34 195.54 160.6 194.28 160.6 194.28 160.85 195.54 160.85 195.54 162.11 195.79 162.11 195.79 160.85 197.05 160.85 197.05 160.6"/><polygon class="cls-2" points="255.24 123.89 253.98 123.89 253.98 122.63 253.74 122.63 253.74 123.89 252.47 123.89 252.47 124.13 253.74 124.13 253.74 125.4 253.98 125.4 253.98 124.13 255.24 124.13 255.24 123.89"/><polygon class="cls-2" points="338.38 146.75 337.12 146.75 337.12 145.49 336.87 145.49 336.87 146.75 335.61 146.75 335.61 147 336.87 147 336.87 148.26 337.12 148.26 337.12 147 338.38 147 338.38 146.75"/><circle class="cls-4" cx="323.83" cy="86.6" r="2.77"/><path class="cls-5" d="M224.55,375l-1.57.24c.49,3.15.88,6.36,1.16,9.54l1.59-.14C225.45,381.43,225.05,378.19,224.55,375Z" transform="translate(0 -223.42)"/><path class="cls-5" d="M220.25,356.07l-1.52.46c.92,3.05,1.74,6.17,2.44,9.28l1.56-.35C222,362.32,221.18,359.16,220.25,356.07Z" transform="translate(0 -223.42)"/><path class="cls-5" d="M213.39,337.9l-1.45.67c1.33,2.9,2.57,5.88,3.7,8.86l1.49-.56C216,343.85,214.74,340.83,213.39,337.9Z" transform="translate(0 -223.42)"/><path class="cls-5" d="M204.1,320.87l-1.34.86c1.71,2.68,3.35,5.47,4.88,8.26l1.39-.76C207.5,326.4,205.83,323.59,204.1,320.87Z" transform="translate(0 -223.42)"/><path class="cls-5" d="M192.56,305.26l-1.21,1c2.06,2.42,4.07,5,6,7.52l1.27-.95C196.68,310.28,194.65,307.72,192.56,305.26Z" transform="translate(0 -223.42)"/><path class="cls-5" d="M179,291.37l-1.06,1.18c2.38,2.13,4.71,4.37,6.94,6.65l1.14-1.12C183.77,295.77,181.41,293.51,179,291.37Z" transform="translate(0 -223.42)"/><path class="cls-5" d="M163.67,279.44l-.89,1.31c2.64,1.78,5.26,3.68,7.78,5.64l1-1.25C169,283.16,166.34,281.24,163.67,279.44Z" transform="translate(0 -223.42)"/><path class="cls-5" d="M149.72,271.15V273c1.66.87,3.3,1.78,4.91,2.7l.8-1.37C153.56,273.2,151.66,272.15,149.72,271.15Z" transform="translate(0 -223.42)"/><path class="cls-5" d="M224.19,524.65c.26-1.54.5-3.13.71-4.7l1.58.21c-.21,1.59-.45,3.19-.72,4.76Z" transform="translate(0 -223.42)"/><path class="cls-5" d="M219.75,543.35l1.53.47c.95-3.08,1.82-6.23,2.56-9.37l-1.55-.37C221.55,537.19,220.7,540.3,219.75,543.35Z" transform="translate(0 -223.42)"/><path class="cls-5" d="M212.8,561.24l1.44.68c1.38-2.92,2.66-5.92,3.83-8.93l-1.49-.58C215.43,555.39,214.16,558.36,212.8,561.24Z" transform="translate(0 -223.42)"/><path class="cls-5" d="M203.44,578l1.33.87c1.76-2.7,3.45-5.5,5-8.32l-1.39-.78C206.86,572.58,205.18,575.35,203.44,578Z" transform="translate(0 -223.42)"/><path class="cls-5" d="M191.85,593.37l1.21,1c2.12-2.44,4.18-5,6.12-7.55l-1.27-1C196,588.44,194,591,191.85,593.37Z" transform="translate(0 -223.42)"/><path class="cls-5" d="M178.29,607l1.05,1.2c2.44-2.13,4.82-4.37,7.1-6.65l-1.13-1.13C183.06,602.66,180.7,604.87,178.29,607Z" transform="translate(0 -223.42)"/><path class="cls-5" d="M163,618.61l.88,1.33c2.69-1.77,5.36-3.67,7.92-5.62l-1-1.27C168.32,615,165.68,616.86,163,618.61Z" transform="translate(0 -223.42)"/><path class="cls-5" d="M155.61,625c-1.93,1.09-3.9,2.14-5.89,3.14v-1.79c1.72-.87,3.43-1.79,5.1-2.72Z" transform="translate(0 -223.42)"/><path class="cls-5" d="M224.66,394.62l1.59,0c0,1.61,0,3.22,0,4.8l-1.59,0C224.69,397.81,224.69,396.21,224.66,394.62Z" transform="translate(0 -223.42)"/><path class="cls-6" d="M156.72,432.39h163a45.73,45.73,0,0,1,45.73,45.73v6.05H202.45a45.72,45.72,0,0,1-45.73-45.72h0v-6.06Z" transform="translate(0 -223.42)"/><path class="cls-2" d="M264.87,712.21c-.16-.26-3.91-6.52-5.21-19.52-1.19-11.93-.43-32,10-60.06,19.75-53.12-4.55-96-4.8-96.41l1.2-.69c.06.11,6.33,11,10,28.43A124.1,124.1,0,0,1,271,633.11c-19.72,53-5.06,78.13-4.91,78.38Z" transform="translate(0 -223.42)"/><circle class="cls-3" cx="257.14" cy="300.67" r="9.01"/><circle class="cls-2" cx="285.55" cy="333.93" r="9.01"/><circle class="cls-3" cx="266.15" cy="356.1" r="9.01"/><circle class="cls-3" cx="289.71" cy="374.8" r="9.01"/><circle class="cls-2" cx="259.22" cy="403.9" r="9.01"/><path class="cls-2" d="M270.31,712.54s-9-22.17,18-38.8Z" transform="translate(0 -223.42)"/><path class="cls-2" d="M259.23,712.14s-4.1-23.58-35.82-23.38Z" transform="translate(0 -223.42)"/><circle class="cls-7" cx="223.38" cy="234.86" r="55.42"/><circle class="cls-7" cx="223.38" cy="234.86" r="39.03"/><circle class="cls-3" cx="223.38" cy="234.86" r="25.76"/><path class="cls-6" d="M228.06,452.73a4.69,4.69,0,1,0-7.64,3.63l-1.73,12.07h9.37l-1.73-12.07A4.67,4.67,0,0,0,228.06,452.73Z" transform="translate(0 -223.42)"/><path class="cls-8" d="M482.26,260.35S466.81,246.5,446,272.6s-53.28,38.9-60.74,49c0,0,30.91-12.79,41.56-18.11S437,299.24,437,299.24s-14.38,10.13-17.05,20.25-.53,18.65-5.32,28.77,91.64,6.93,91.64,6.93,9.59-16.52,6.92-33.57S512.1,262.48,482.26,260.35Z" transform="translate(0 -223.42)"/><path class="cls-9" d="M453,303.93s3.36,23.52-11,28.8-9.12,12.48-9.12,12.48l21.6,10.55,23-7.19,7.68-11.52s-12.48-2.88-9.12-11.52S480.39,314,480.39,314Z" transform="translate(0 -223.42)"/><path class="cls-10" d="M453,303.93s3.36,23.52-11,28.8-9.12,12.48-9.12,12.48l21.6,10.55,23-7.19,7.68-11.52s-12.48-2.88-9.12-11.52S480.39,314,480.39,314Z" transform="translate(0 -223.42)"/><path class="cls-9" d="M513.51,371.12s-3.36,44.16-2.4,46.08,0,68.63,0,68.63,6.72,36-1.92,37.92-6.72-40.31-6.72-40.31l-8.64-55.68,1-55.2Z" transform="translate(0 -223.42)"/><path class="cls-10" d="M513.51,371.12s-3.36,44.16-2.4,46.08,0,68.63,0,68.63,6.72,36-1.92,37.92-6.72-40.31-6.72-40.31l-8.64-55.68,1-55.2Z" transform="translate(0 -223.42)"/><path class="cls-9" d="M419.92,504.07s-15.84,60-15.36,89.28,6.72,70.07,6.72,70.07,1,17.76-.48,19.68,7.2,10.08,7.2,10.08l9.12-5.28,3.36-3.84V680.7s-5.28-16.32-1-29.28,6.72-45.59,2.4-55.67l29.76-88.32Z" transform="translate(0 -223.42)"/><path class="cls-8" d="M419,685.5s-5.76-7.2-9.6-4.8-10.08,18.72-10.08,18.72S377.68,720.06,393,721s22.08-4.32,24-8.16,19.68-13.92,19.68-13.92-1.92-18.24-4.8-18.72-7.2,7.2-7.2,7.2Z" transform="translate(0 -223.42)"/><path class="cls-9" d="M472.23,507.91v59.52a185.8,185.8,0,0,0,1.44,21.6c1.44,10.56-8.15,89.27-8.15,89.27l1,13.92,12-1,1.44-12,17.28-52.8s5.76-32.15,2.88-44.15S515,493.51,515,493.51Z" transform="translate(0 -223.42)"/><path class="cls-8" d="M462.64,688.86l3.55-.77s2.69-6,6-4.51a36.22,36.22,0,0,1,6.69,4l1.47,2.72a57.37,57.37,0,0,0,7.68,12c4.32,4.8,9.12,15.36,1.92,16.32s-16.8,1.44-19.68-1-.95-6.24-3.83-7.2-5.28-3.84-4.8-4.8S462.64,688.86,462.64,688.86Z" transform="translate(0 -223.42)"/><circle class="cls-9" cx="472.23" cy="75.7" r="21.33"/><path class="cls-3" d="M431.92,336.57l6.34-2.22s-2.5,4.14,10.94,6.54,27.35,3.25,33.59-4.62c0,0,2.4-1.14,5.76,2.22s5.28,2.4,5.28,2.4l-2.4,12.48-4.8,23-6.24,17.28-17.75-3.84-19.2-13.92-7.2-18.72V339.93Z" transform="translate(0 -223.42)"/><path class="cls-3" d="M490.47,343.29l4.8-3.36s16.32,2.88,17.28,10.56l-12.48,24a27.27,27.27,0,0,1-.48,20.64c-4.8,11-4.32,13.44-4.32,13.44L491.91,423l-61,4.8s-2.4-5.76-3.36-6.72-1-4.32,0-4.32,0-1.44-1-2.88-1.44-1.92,0-3.84-2.4-19.2-2.4-19.2V372.08l-16.32-21.59s5.76-8.64,8.64-9.6,16.58-4.75,16.58-4.75l3.1,4.56,4.32,34.74,6.24,21.12,26.27-4.46L483.27,375,490,354.8Z" transform="translate(0 -223.42)"/><path class="cls-3" d="M508.71,347.61l3.84,2.88s3.36,26.87,2.4,28.79-17.76,3.84-18.24,2.88S508.71,347.61,508.71,347.61Z" transform="translate(0 -223.42)"/><path class="cls-8" d="M429.52,334.17l4.8,31.67s-4.32,47-3.36,56.64l1,2.88s-1.92-1-2.4,1,0,8.16,0,8.16-2.88,2.88-3.84,18.72S413.2,507,417.52,508.39s30.24,8.64,44.16,7.2S525.51,497.35,525,493s-24.48-65.27-24.48-65.27-4.32-7.2-4.32-8.16,5.76-4.8,4.32-8.64-9.12-44.16-9.12-44.16L496.71,338l-7.2-1.92-5.28,27.83S463.6,374,442,364.88l-4.8-32.63Z" transform="translate(0 -223.42)"/><path class="cls-8" d="M452.61,283.82s35.52,24.48,45.12,13.44-16.8-20.64-16.8-20.64l-22.08-2.4Z" transform="translate(0 -223.42)"/><path class="cls-3" d="M397.43,544.22a18.71,18.71,0,1,0-5.88-7.29l-49,40.78L336,570l-2.93,2-3.26-3.87,2.68-2.26-3.26-3.87-4.17,3.52,2,2.38-4.47,3.76-2-2.38-6.55,5.52,3,3.57,2.38-2,3.26,3.87-3,2.51,6,7.15-7.14,6,7.27,8.63Zm12.23-27.36a12.39,12.39,0,1,1-13.4,11.29,12.39,12.39,0,0,1,13.4-11.29Z" transform="translate(0 -223.42)"/><path class="cls-9" d="M404.56,376.88S407.92,421,407,423s0,68.63,0,68.63-6.72,36,1.92,37.92,6.72-40.32,6.72-40.32l8.64-55.67-1-55.2Z" transform="translate(0 -223.42)"/><path class="cls-3" d="M411.76,349.05l-3.84,1.44s-7.2,30.23-5.28,30.23,25,2.88,25,1.92-4.32-24.48-4.32-24.48Z" transform="translate(0 -223.42)"/></svg>