<?xml version="1.0" encoding="utf-8"?>
<!-- Generator: Adobe Illustrator 26.0.3, SVG Export Plug-In . SVG Version: 6.00 Build 0)  -->
<svg version="1.1" id="eb1b09ad-1fe0-40ca-8096-34696e14e30a"
	 xmlns="http://www.w3.org/2000/svg" xmlns:xlink="http://www.w3.org/1999/xlink" x="0px" y="0px" viewBox="0 0 1010.9 727.3"
	 style="enable-background:new 0 0 1010.9 727.3;" xml:space="preserve">
<style type="text/css">
	.st0{fill:#3F3D56;}
	.st1{fill:#F2F2F2;}
	.st2{fill:#FF6347;}
	.st3{fill:#FF6584;}
	.st4{fill:#E6E6E6;}
	.st5{fill:#FFFFFF;}
	.st6{opacity:0.2;fill:#FF6347;enable-background:new    ;}
	.st7{fill:#2F2E41;}
	.st8{fill:#FFB9B9;}
	.st9{opacity:0.1;enable-background:new    ;}
</style>
<path class="st0" d="M700.3,727.3c-36.1-5.3-70.8-9.8-104.1-13.7l13.2-21.3c-4.4-1.3-24,10.8-24,10.8l17.3-62
	c-22.3,2.2-33.7,65.5-33.7,65.5l-25-21.5l12.1,24.1c-102-10.5-190.1-14.7-264.2-15.1l11.3-18.2c-4.4-1.3-24,10.8-24,10.8l17.3-62
	c-22.3,2.2-33.7,65.5-33.7,65.5l-25-21.5l12.8,25.6c-62.1,0.8-112.8,4.1-151.9,7.9c11.4-28.5,50.2-55.4,50.2-55.4
	c-29.6,7.2-45.1,19.5-53.2,31c-0.6-35.2,3.6-100.5,34.5-172.6c0,0-61.2,111.1-53.4,186l0.9,13.3C26.1,710.3,0,716.7,0,716.7
	L700.3,727.3z"/>
<path class="st0" d="M372.4,243.6v449.1c0,11.1-9,20.2-20.2,20.2H169.9c-11.1,0-20.2-9-20.2-20.1c0,0,0,0,0-0.1V243.6
	c0-11.1,9-20.2,20.2-20.2c0,0,0,0,0,0h27.3v3.5c0,9.2,7.4,16.6,16.6,16.6h92.7c3.5,0,7-1.1,9.9-3.2c0.6-0.4,1.1-0.9,1.6-1.4
	c3.3-3.1,5.1-7.5,5.1-12v-3.5h29.1C363.4,223.4,372.4,232.5,372.4,243.6C372.4,243.6,372.4,243.6,372.4,243.6z"/>
<circle class="st1" cx="200.5" cy="298.2" r="4.8"/>
<path class="st2" d="M318,238.9c-0.5,0.5-1.1,1-1.6,1.4c12,21.1,32.3,36.3,56,41.7v-2.2C349.3,274.4,329.6,259.6,318,238.9z"/>
<path class="st2" d="M276.6,243.5h-2.3c16.4,41.7,53.8,71.5,98.1,78.3v-2.1C329.3,313,292.8,284.1,276.6,243.5z"/>
<path class="st2" d="M234.7,243.5h-2.2c18.3,63.6,73.6,110.9,139.9,118.6V360C307.2,352.3,252.9,305.9,234.7,243.5z"/>
<polygon class="st1" points="184.6,334.1 183.3,334.1 183.3,332.9 183.1,332.9 183.1,334.1 181.8,334.1 181.8,334.4 183.1,334.4 
	183.1,335.7 183.3,335.7 183.3,334.4 184.6,334.4 "/>
<polygon class="st1" points="269.8,271.1 268.5,271.1 268.5,269.8 268.3,269.8 268.3,271.1 267,271.1 267,271.4 268.3,271.4 
	268.3,272.6 268.5,272.6 268.5,271.4 269.8,271.4 "/>
<polygon class="st1" points="197,384 195.8,384 195.8,382.8 195.5,382.8 195.5,384 194.3,384 194.3,384.3 195.5,384.3 195.5,385.5 
	195.8,385.5 195.8,384.3 197,384.3 "/>
<polygon class="st1" points="255.2,347.3 254,347.3 254,346 253.7,346 253.7,347.3 252.5,347.3 252.5,347.6 253.7,347.6 
	253.7,348.8 254,348.8 254,347.6 255.2,347.6 "/>
<polygon class="st1" points="338.4,370.2 337.1,370.2 337.1,368.9 336.9,368.9 336.9,370.2 335.6,370.2 335.6,370.4 336.9,370.4 
	336.9,371.7 337.1,371.7 337.1,370.4 338.4,370.4 "/>
<circle class="st3" cx="323.8" cy="310" r="2.8"/>
<path class="st4" d="M224.6,375l-1.6,0.2c0.5,3.1,0.9,6.4,1.2,9.5l1.6-0.1C225.4,381.4,225.1,378.2,224.6,375z"/>
<path class="st4" d="M220.3,356.1l-1.5,0.5c0.9,3,1.7,6.2,2.4,9.3l1.6-0.4C222,362.3,221.2,359.2,220.3,356.1z"/>
<path class="st4" d="M213.4,337.9l-1.4,0.7c1.3,2.9,2.6,5.9,3.7,8.9l1.5-0.6C216,343.9,214.7,340.8,213.4,337.9z"/>
<path class="st4" d="M204.1,320.9l-1.3,0.9c1.7,2.7,3.4,5.5,4.9,8.3l1.4-0.8C207.5,326.4,205.8,323.6,204.1,320.9z"/>
<path class="st4" d="M192.6,305.3l-1.2,1c2.1,2.4,4.1,5,6,7.5l1.3-0.9C196.7,310.3,194.7,307.7,192.6,305.3z"/>
<path class="st4" d="M179,291.4l-1.1,1.2c2.4,2.1,4.7,4.4,6.9,6.6l1.1-1.1C183.8,295.8,181.4,293.5,179,291.4z"/>
<path class="st4" d="M163.7,279.4l-0.9,1.3c2.6,1.8,5.3,3.7,7.8,5.6l1-1.3C169,283.2,166.3,281.2,163.7,279.4z"/>
<path class="st4" d="M149.7,271.2v1.8c1.7,0.9,3.3,1.8,4.9,2.7l0.8-1.4C153.6,273.2,151.7,272.2,149.7,271.2z"/>
<path class="st4" d="M224.2,524.7c0.3-1.5,0.5-3.1,0.7-4.7l1.6,0.2c-0.2,1.6-0.4,3.2-0.7,4.8L224.2,524.7z"/>
<path class="st4" d="M219.8,543.3l1.5,0.5c1-3.1,1.8-6.2,2.6-9.4l-1.6-0.4C221.6,537.2,220.7,540.3,219.8,543.3z"/>
<path class="st4" d="M212.8,561.2l1.4,0.7c1.4-2.9,2.7-5.9,3.8-8.9l-1.5-0.6C215.4,555.4,214.2,558.4,212.8,561.2z"/>
<path class="st4" d="M203.4,578l1.3,0.9c1.8-2.7,3.5-5.5,5-8.3l-1.4-0.8C206.9,572.6,205.2,575.4,203.4,578z"/>
<path class="st4" d="M191.9,593.4l1.2,1c2.1-2.4,4.2-5,6.1-7.6l-1.3-1C196,588.4,194,591,191.9,593.4z"/>
<path class="st4" d="M178.3,607l1,1.2c2.4-2.1,4.8-4.4,7.1-6.6l-1.1-1.1C183.1,602.7,180.7,604.9,178.3,607z"/>
<path class="st4" d="M163,618.6l0.9,1.3c2.7-1.8,5.4-3.7,7.9-5.6l-1-1.3C168.3,615,165.7,616.9,163,618.6z"/>
<path class="st4" d="M155.6,625c-1.9,1.1-3.9,2.1-5.9,3.1v-1.8c1.7-0.9,3.4-1.8,5.1-2.7L155.6,625z"/>
<path class="st4" d="M224.7,394.6l1.6,0c0,1.6,0,3.2,0,4.8l-1.6,0C224.7,397.8,224.7,396.2,224.7,394.6z"/>
<path class="st5" d="M156.7,432.4h163c25.3,0,45.7,20.5,45.7,45.7v6.1l0,0h-163c-25.3,0-45.7-20.5-45.7-45.7c0,0,0,0,0,0
	L156.7,432.4L156.7,432.4z"/>
<path class="st1" d="M264.9,712.2c-0.2-0.3-3.9-6.5-5.2-19.5c-1.2-11.9-0.4-32,10-60.1c19.7-53.1-4.6-96-4.8-96.4l1.2-0.7
	c0.1,0.1,6.3,11,10,28.4c4.9,23.1,3.1,47.1-5.1,69.1c-19.7,53-5.1,78.1-4.9,78.4L264.9,712.2z"/>
<circle class="st2" cx="257.1" cy="524.1" r="9"/>
<circle class="st1" cx="285.5" cy="557.4" r="9"/>
<circle class="st2" cx="266.2" cy="579.5" r="9"/>
<circle class="st2" cx="289.7" cy="598.2" r="9"/>
<circle class="st1" cx="259.2" cy="627.3" r="9"/>
<path class="st1" d="M270.3,712.5c0,0-9-22.2,18-38.8L270.3,712.5z"/>
<path class="st1" d="M259.2,712.1c0,0-4.1-23.6-35.8-23.4L259.2,712.1z"/>
<circle class="st6" cx="223.4" cy="458.3" r="55.4"/>
<circle class="st6" cx="223.4" cy="458.3" r="39"/>
<circle class="st2" cx="223.4" cy="458.3" r="25.8"/>
<path class="st5" d="M228.1,452.7c0-2.6-2.1-4.7-4.7-4.7c-2.6,0-4.7,2.1-4.7,4.7c0,1.4,0.6,2.7,1.7,3.6l-1.7,12.1h9.4l-1.7-12.1
	C227.4,455.5,228.1,454.1,228.1,452.7z"/>
<path class="st7" d="M482.3,260.4c0,0-15.5-13.9-36.2,12.3s-53.3,38.9-60.7,49c0,0,30.9-12.8,41.6-18.1c10.7-5.3,10.1-4.3,10.1-4.3
	s-14.4,10.1-17,20.2c-2.7,10.1-0.5,18.6-5.3,28.8c-4.8,10.1,91.6,6.9,91.6,6.9s9.6-16.5,6.9-33.6
	C510.5,304.6,512.1,262.5,482.3,260.4z"/>
<path class="st8" d="M453,303.9c0,0,3.4,23.5-11,28.8s-9.1,12.5-9.1,12.5l21.6,10.6l23-7.2l7.7-11.5c0,0-12.5-2.9-9.1-11.5
	c3.4-8.6,4.3-11.5,4.3-11.5L453,303.9z"/>
<path class="st9" d="M453,303.9c0,0,3.4,23.5-11,28.8s-9.1,12.5-9.1,12.5l21.6,10.6l23-7.2l7.7-11.5c0,0-12.5-2.9-9.1-11.5
	c3.4-8.6,4.3-11.5,4.3-11.5L453,303.9z"/>
<path class="st8" d="M513.5,371.1c0,0-3.4,44.2-2.4,46.1s0,68.6,0,68.6s6.7,36-1.9,37.9c-8.6,1.9-6.7-40.3-6.7-40.3l-8.6-55.7
	l1-55.2L513.5,371.1z"/>
<path class="st9" d="M513.5,371.1c0,0-3.4,44.2-2.4,46.1s0,68.6,0,68.6s6.7,36-1.9,37.9c-8.6,1.9-6.7-40.3-6.7-40.3l-8.6-55.7
	l1-55.2L513.5,371.1z"/>
<path class="st8" d="M419.9,504.1c0,0-15.8,60-15.4,89.3c0.5,29.3,6.7,70.1,6.7,70.1s1,17.8-0.5,19.7s7.2,10.1,7.2,10.1l9.1-5.3
	l3.4-3.8v-3.4c0,0-5.3-16.3-1-29.3c4.3-13,6.7-45.6,2.4-55.7l29.8-88.3L419.9,504.1z"/>
<path class="st7" d="M419,685.5c0,0-5.8-7.2-9.6-4.8c-3.8,2.4-10.1,18.7-10.1,18.7s-21.6,20.6-6.2,21.6c15.4,1,22.1-4.3,24-8.2
	c1.9-3.8,19.7-13.9,19.7-13.9s-1.9-18.2-4.8-18.7c-2.9-0.5-7.2,7.2-7.2,7.2L419,685.5z"/>
<path class="st8" d="M472.2,507.9v59.5c0.1,7.2,0.5,14.4,1.4,21.6c1.4,10.6-8.2,89.3-8.2,89.3l1,13.9l12-1l1.4-12l17.3-52.8
	c0,0,5.8-32.2,2.9-44.2c-2.9-12,14.9-88.8,14.9-88.8L472.2,507.9z"/>
<path class="st7" d="M462.6,688.9l3.6-0.8c0,0,2.7-5.9,6-4.5c2.4,1.1,4.6,2.4,6.7,4l1.5,2.7c0,0,3.4,7.2,7.7,12
	c4.3,4.8,9.1,15.4,1.9,16.3c-7.2,1-16.8,1.4-19.7-1c-2.9-2.4-1-6.2-3.8-7.2c-2.9-1-5.3-3.8-4.8-4.8
	C462.2,704.7,462.6,688.9,462.6,688.9z"/>
<circle class="st8" cx="472.2" cy="299.1" r="21.3"/>
<path class="st2" d="M431.9,336.6l6.3-2.2c0,0-2.5,4.1,10.9,6.5c13.4,2.4,27.4,3.2,33.6-4.6c0,0,2.4-1.1,5.8,2.2
	c3.4,3.4,5.3,2.4,5.3,2.4l-2.4,12.5l-4.8,23l-6.2,17.3l-17.8-3.8l-19.2-13.9l-7.2-18.7v-17.3L431.9,336.6z"/>
<path class="st2" d="M490.5,343.3l4.8-3.4c0,0,16.3,2.9,17.3,10.6l-12.5,24c2.5,6.7,2.4,14.1-0.5,20.6c-4.8,11-4.3,13.4-4.3,13.4
	l-3.4,14.4l-61,4.8c0,0-2.4-5.8-3.4-6.7c-1-1-1-4.3,0-4.3c1,0,0-1.4-1-2.9c-1-1.4-1.4-1.9,0-3.8s-2.4-19.2-2.4-19.2v-18.7
	l-16.3-21.6c0,0,5.8-8.6,8.6-9.6c2.9-1,16.6-4.7,16.6-4.7l3.1,4.6l4.3,34.7l6.2,21.1l26.3-4.5l10.2-17.1l6.7-20.2L490.5,343.3z"/>
<path class="st2" d="M508.7,347.6l3.8,2.9c0,0,3.4,26.9,2.4,28.8s-17.8,3.8-18.2,2.9S508.7,347.6,508.7,347.6z"/>
<path class="st7" d="M429.5,334.2l4.8,31.7c0,0-4.3,47-3.4,56.6l1,2.9c0,0-1.9-1-2.4,1s0,8.2,0,8.2s-2.9,2.9-3.8,18.7
	c-1,15.8-12.5,53.8-8.2,55.2s30.2,8.6,44.2,7.2c13.9-1.4,63.8-18.2,63.4-22.6c-0.5-4.3-24.5-65.3-24.5-65.3s-4.3-7.2-4.3-8.2
	s5.8-4.8,4.3-8.6c-1.4-3.8-9.1-44.2-9.1-44.2l5.3-28.8l-7.2-1.9l-5.3,27.8c0,0-20.6,10.1-42.2,1l-4.8-32.6L429.5,334.2z"/>
<path class="st7" d="M452.6,283.8c0,0,35.5,24.5,45.1,13.4c9.6-11-16.8-20.6-16.8-20.6l-22.1-2.4L452.6,283.8z"/>
<path class="st2" d="M397.4,544.2c8.3,6.2,20,4.5,26.2-3.8c6.2-8.3,4.5-20-3.8-26.2c-8.3-6.2-20-4.5-26.2,3.8
	c-4.1,5.5-4.8,12.7-2,18.9l-49,40.8L336,570l-2.9,2l-3.3-3.9l2.7-2.3l-3.3-3.9l-4.2,3.5l2,2.4l-4.5,3.8l-2-2.4l-6.6,5.5l3,3.6l2.4-2
	l3.3,3.9l-3,2.5l6,7.1l-7.1,6l7.3,8.6L397.4,544.2z M409.7,516.9c6.8,0.6,11.9,6.6,11.3,13.4c-0.6,6.8-6.6,11.9-13.4,11.3
	c-6.8-0.6-11.9-6.6-11.3-13.4C396.8,521.3,402.8,516.3,409.7,516.9L409.7,516.9z"/>
<path class="st8" d="M404.6,376.9c0,0,3.4,44.2,2.4,46.1c-1,1.9,0,68.6,0,68.6s-6.7,36,1.9,37.9c8.6,1.9,6.7-40.3,6.7-40.3l8.6-55.7
	l-1-55.2L404.6,376.9z"/>
<path class="st2" d="M411.8,349l-3.8,1.4c0,0-7.2,30.2-5.3,30.2c1.9,0,25,2.9,25,1.9c0-1-4.3-24.5-4.3-24.5L411.8,349z"/>
</svg>
